<mxfile host="app.diagrams.net" agent="Mozilla/5.0 (Windows NT 10.0; Win64; x64) AppleWebKit/537.36 (KHTML, like Gecko) Chrome/136.0.0.0 Safari/537.36" version="26.2.12">
  <diagram id="C5RBs43oDa-KdzZeNtuy" name="Page-1">
    <mxGraphModel dx="1496" dy="815" grid="1" gridSize="10" guides="1" tooltips="1" connect="1" arrows="1" fold="1" page="1" pageScale="1" pageWidth="827" pageHeight="1169" math="0" shadow="0">
      <root>
        <mxCell id="WIyWlLk6GJQsqaUBKTNV-0" />
        <mxCell id="WIyWlLk6GJQsqaUBKTNV-1" parent="WIyWlLk6GJQsqaUBKTNV-0" />
        <mxCell id="WIyWlLk6GJQsqaUBKTNV-2" value="" style="rounded=0;html=1;jettySize=auto;orthogonalLoop=1;fontSize=11;endArrow=block;endFill=0;endSize=8;strokeWidth=1;shadow=0;labelBackgroundColor=none;edgeStyle=orthogonalEdgeStyle;" parent="WIyWlLk6GJQsqaUBKTNV-1" source="WIyWlLk6GJQsqaUBKTNV-3" target="WIyWlLk6GJQsqaUBKTNV-6" edge="1">
          <mxGeometry relative="1" as="geometry" />
        </mxCell>
        <mxCell id="WIyWlLk6GJQsqaUBKTNV-3" value="Halaman utama" style="rounded=1;whiteSpace=wrap;html=1;fontSize=12;glass=0;strokeWidth=1;shadow=0;" parent="WIyWlLk6GJQsqaUBKTNV-1" vertex="1">
          <mxGeometry x="160" y="80" width="120" height="40" as="geometry" />
        </mxCell>
        <mxCell id="2IBECbfdiOeWQBRibXv1-5" style="edgeStyle=orthogonalEdgeStyle;rounded=0;orthogonalLoop=1;jettySize=auto;html=1;exitX=0.5;exitY=1;exitDx=0;exitDy=0;entryX=0.5;entryY=0;entryDx=0;entryDy=0;" edge="1" parent="WIyWlLk6GJQsqaUBKTNV-1" source="WIyWlLk6GJQsqaUBKTNV-6" target="WIyWlLk6GJQsqaUBKTNV-10">
          <mxGeometry relative="1" as="geometry" />
        </mxCell>
        <mxCell id="2IBECbfdiOeWQBRibXv1-15" style="edgeStyle=orthogonalEdgeStyle;rounded=0;orthogonalLoop=1;jettySize=auto;html=1;exitX=1;exitY=0.5;exitDx=0;exitDy=0;entryX=0;entryY=0.5;entryDx=0;entryDy=0;" edge="1" parent="WIyWlLk6GJQsqaUBKTNV-1" source="WIyWlLk6GJQsqaUBKTNV-6" target="2IBECbfdiOeWQBRibXv1-14">
          <mxGeometry relative="1" as="geometry" />
        </mxCell>
        <mxCell id="WIyWlLk6GJQsqaUBKTNV-6" value="Tambah Komentar" style="rhombus;whiteSpace=wrap;html=1;shadow=0;fontFamily=Helvetica;fontSize=12;align=center;strokeWidth=1;spacing=6;spacingTop=-4;" parent="WIyWlLk6GJQsqaUBKTNV-1" vertex="1">
          <mxGeometry x="170" y="170" width="100" height="80" as="geometry" />
        </mxCell>
        <mxCell id="2IBECbfdiOeWQBRibXv1-2" style="edgeStyle=orthogonalEdgeStyle;rounded=0;orthogonalLoop=1;jettySize=auto;html=1;exitX=0.5;exitY=1;exitDx=0;exitDy=0;entryX=0.5;entryY=0;entryDx=0;entryDy=0;" edge="1" parent="WIyWlLk6GJQsqaUBKTNV-1" source="WIyWlLk6GJQsqaUBKTNV-10" target="2IBECbfdiOeWQBRibXv1-0">
          <mxGeometry relative="1" as="geometry" />
        </mxCell>
        <mxCell id="2IBECbfdiOeWQBRibXv1-3" style="edgeStyle=orthogonalEdgeStyle;rounded=0;orthogonalLoop=1;jettySize=auto;html=1;exitX=1;exitY=0.5;exitDx=0;exitDy=0;entryX=0;entryY=0.5;entryDx=0;entryDy=0;" edge="1" parent="WIyWlLk6GJQsqaUBKTNV-1" source="WIyWlLk6GJQsqaUBKTNV-10" target="2IBECbfdiOeWQBRibXv1-28">
          <mxGeometry relative="1" as="geometry">
            <mxPoint x="310" y="330" as="targetPoint" />
          </mxGeometry>
        </mxCell>
        <mxCell id="WIyWlLk6GJQsqaUBKTNV-10" value="Ubah Komentar" style="rhombus;whiteSpace=wrap;html=1;shadow=0;fontFamily=Helvetica;fontSize=12;align=center;strokeWidth=1;spacing=6;spacingTop=-4;" parent="WIyWlLk6GJQsqaUBKTNV-1" vertex="1">
          <mxGeometry x="170" y="290" width="100" height="80" as="geometry" />
        </mxCell>
        <mxCell id="2IBECbfdiOeWQBRibXv1-7" style="edgeStyle=orthogonalEdgeStyle;rounded=0;orthogonalLoop=1;jettySize=auto;html=1;exitX=0.5;exitY=1;exitDx=0;exitDy=0;entryX=0.5;entryY=0;entryDx=0;entryDy=0;" edge="1" parent="WIyWlLk6GJQsqaUBKTNV-1" source="2IBECbfdiOeWQBRibXv1-0" target="2IBECbfdiOeWQBRibXv1-6">
          <mxGeometry relative="1" as="geometry" />
        </mxCell>
        <mxCell id="2IBECbfdiOeWQBRibXv1-34" style="edgeStyle=orthogonalEdgeStyle;rounded=0;orthogonalLoop=1;jettySize=auto;html=1;exitX=1;exitY=0.5;exitDx=0;exitDy=0;entryX=0;entryY=0.5;entryDx=0;entryDy=0;" edge="1" parent="WIyWlLk6GJQsqaUBKTNV-1" source="2IBECbfdiOeWQBRibXv1-0" target="2IBECbfdiOeWQBRibXv1-33">
          <mxGeometry relative="1" as="geometry" />
        </mxCell>
        <mxCell id="2IBECbfdiOeWQBRibXv1-0" value="Hapus Komentar" style="rhombus;whiteSpace=wrap;html=1;" vertex="1" parent="WIyWlLk6GJQsqaUBKTNV-1">
          <mxGeometry x="160" y="430" width="120" height="100" as="geometry" />
        </mxCell>
        <mxCell id="2IBECbfdiOeWQBRibXv1-9" style="edgeStyle=orthogonalEdgeStyle;rounded=0;orthogonalLoop=1;jettySize=auto;html=1;exitX=0.5;exitY=1;exitDx=0;exitDy=0;entryX=0.5;entryY=0;entryDx=0;entryDy=0;" edge="1" parent="WIyWlLk6GJQsqaUBKTNV-1" source="2IBECbfdiOeWQBRibXv1-6" target="2IBECbfdiOeWQBRibXv1-8">
          <mxGeometry relative="1" as="geometry" />
        </mxCell>
        <mxCell id="2IBECbfdiOeWQBRibXv1-6" value="Cari Komentar" style="rhombus;whiteSpace=wrap;html=1;" vertex="1" parent="WIyWlLk6GJQsqaUBKTNV-1">
          <mxGeometry x="165" y="560" width="110" height="110" as="geometry" />
        </mxCell>
        <mxCell id="2IBECbfdiOeWQBRibXv1-11" style="edgeStyle=orthogonalEdgeStyle;rounded=0;orthogonalLoop=1;jettySize=auto;html=1;exitX=0.5;exitY=1;exitDx=0;exitDy=0;entryX=0.5;entryY=0;entryDx=0;entryDy=0;" edge="1" parent="WIyWlLk6GJQsqaUBKTNV-1" source="2IBECbfdiOeWQBRibXv1-8" target="2IBECbfdiOeWQBRibXv1-10">
          <mxGeometry relative="1" as="geometry" />
        </mxCell>
        <mxCell id="2IBECbfdiOeWQBRibXv1-8" value="Statistik Komentar" style="rhombus;whiteSpace=wrap;html=1;" vertex="1" parent="WIyWlLk6GJQsqaUBKTNV-1">
          <mxGeometry x="157.5" y="700" width="125" height="110" as="geometry" />
        </mxCell>
        <mxCell id="2IBECbfdiOeWQBRibXv1-10" value="Daftar Komentar" style="rhombus;whiteSpace=wrap;html=1;" vertex="1" parent="WIyWlLk6GJQsqaUBKTNV-1">
          <mxGeometry x="155" y="850" width="130" height="120" as="geometry" />
        </mxCell>
        <mxCell id="2IBECbfdiOeWQBRibXv1-27" style="edgeStyle=orthogonalEdgeStyle;rounded=0;orthogonalLoop=1;jettySize=auto;html=1;exitX=1;exitY=0.5;exitDx=0;exitDy=0;" edge="1" parent="WIyWlLk6GJQsqaUBKTNV-1" source="2IBECbfdiOeWQBRibXv1-12" target="2IBECbfdiOeWQBRibXv1-25">
          <mxGeometry relative="1" as="geometry" />
        </mxCell>
        <mxCell id="2IBECbfdiOeWQBRibXv1-12" value="n = 0" style="rounded=1;whiteSpace=wrap;html=1;" vertex="1" parent="WIyWlLk6GJQsqaUBKTNV-1">
          <mxGeometry x="460" y="190" width="110" height="40" as="geometry" />
        </mxCell>
        <mxCell id="2IBECbfdiOeWQBRibXv1-17" style="edgeStyle=orthogonalEdgeStyle;rounded=0;orthogonalLoop=1;jettySize=auto;html=1;exitX=1;exitY=0.5;exitDx=0;exitDy=0;entryX=0;entryY=0.5;entryDx=0;entryDy=0;" edge="1" parent="WIyWlLk6GJQsqaUBKTNV-1" source="2IBECbfdiOeWQBRibXv1-14" target="2IBECbfdiOeWQBRibXv1-12">
          <mxGeometry relative="1" as="geometry" />
        </mxCell>
        <mxCell id="2IBECbfdiOeWQBRibXv1-22" style="edgeStyle=orthogonalEdgeStyle;rounded=0;orthogonalLoop=1;jettySize=auto;html=1;exitX=0.5;exitY=0;exitDx=0;exitDy=0;entryX=0;entryY=0.5;entryDx=0;entryDy=0;" edge="1" parent="WIyWlLk6GJQsqaUBKTNV-1" source="2IBECbfdiOeWQBRibXv1-14" target="2IBECbfdiOeWQBRibXv1-21">
          <mxGeometry relative="1" as="geometry" />
        </mxCell>
        <mxCell id="2IBECbfdiOeWQBRibXv1-14" value="Cek array yang kosong" style="rounded=1;whiteSpace=wrap;html=1;" vertex="1" parent="WIyWlLk6GJQsqaUBKTNV-1">
          <mxGeometry x="317" y="190" width="96" height="40" as="geometry" />
        </mxCell>
        <mxCell id="2IBECbfdiOeWQBRibXv1-19" value="Yes" style="text;html=1;align=center;verticalAlign=middle;resizable=0;points=[];autosize=1;strokeColor=none;fillColor=none;" vertex="1" parent="WIyWlLk6GJQsqaUBKTNV-1">
          <mxGeometry x="413" y="178" width="40" height="30" as="geometry" />
        </mxCell>
        <mxCell id="2IBECbfdiOeWQBRibXv1-26" style="edgeStyle=orthogonalEdgeStyle;rounded=0;orthogonalLoop=1;jettySize=auto;html=1;exitX=1;exitY=0.5;exitDx=0;exitDy=0;" edge="1" parent="WIyWlLk6GJQsqaUBKTNV-1" source="2IBECbfdiOeWQBRibXv1-21" target="2IBECbfdiOeWQBRibXv1-25">
          <mxGeometry relative="1" as="geometry" />
        </mxCell>
        <mxCell id="2IBECbfdiOeWQBRibXv1-21" value="n = 1 + array terakhir" style="rounded=1;whiteSpace=wrap;html=1;" vertex="1" parent="WIyWlLk6GJQsqaUBKTNV-1">
          <mxGeometry x="460" y="110" width="120" height="40" as="geometry" />
        </mxCell>
        <mxCell id="2IBECbfdiOeWQBRibXv1-23" value="No" style="text;html=1;align=center;verticalAlign=middle;resizable=0;points=[];autosize=1;strokeColor=none;fillColor=none;" vertex="1" parent="WIyWlLk6GJQsqaUBKTNV-1">
          <mxGeometry x="380" y="100" width="40" height="30" as="geometry" />
        </mxCell>
        <mxCell id="2IBECbfdiOeWQBRibXv1-25" value="Input" style="rounded=1;whiteSpace=wrap;html=1;" vertex="1" parent="WIyWlLk6GJQsqaUBKTNV-1">
          <mxGeometry x="670" y="160" width="90" height="42" as="geometry" />
        </mxCell>
        <mxCell id="2IBECbfdiOeWQBRibXv1-31" style="edgeStyle=orthogonalEdgeStyle;rounded=0;orthogonalLoop=1;jettySize=auto;html=1;exitX=1;exitY=0.5;exitDx=0;exitDy=0;entryX=0;entryY=0.5;entryDx=0;entryDy=0;" edge="1" parent="WIyWlLk6GJQsqaUBKTNV-1" source="2IBECbfdiOeWQBRibXv1-28" target="2IBECbfdiOeWQBRibXv1-29">
          <mxGeometry relative="1" as="geometry" />
        </mxCell>
        <mxCell id="2IBECbfdiOeWQBRibXv1-28" value="Pilih array yang mau diubah" style="rounded=1;whiteSpace=wrap;html=1;" vertex="1" parent="WIyWlLk6GJQsqaUBKTNV-1">
          <mxGeometry x="317" y="305" width="103" height="50" as="geometry" />
        </mxCell>
        <mxCell id="2IBECbfdiOeWQBRibXv1-32" style="edgeStyle=orthogonalEdgeStyle;rounded=0;orthogonalLoop=1;jettySize=auto;html=1;exitX=1;exitY=0.5;exitDx=0;exitDy=0;entryX=0;entryY=0.5;entryDx=0;entryDy=0;" edge="1" parent="WIyWlLk6GJQsqaUBKTNV-1" source="2IBECbfdiOeWQBRibXv1-29" target="2IBECbfdiOeWQBRibXv1-30">
          <mxGeometry relative="1" as="geometry" />
        </mxCell>
        <mxCell id="2IBECbfdiOeWQBRibXv1-29" value="input untuk array tersebut" style="rounded=1;whiteSpace=wrap;html=1;" vertex="1" parent="WIyWlLk6GJQsqaUBKTNV-1">
          <mxGeometry x="460" y="305" width="100" height="55" as="geometry" />
        </mxCell>
        <mxCell id="2IBECbfdiOeWQBRibXv1-30" value="Timpa dengan array lama" style="rounded=1;whiteSpace=wrap;html=1;" vertex="1" parent="WIyWlLk6GJQsqaUBKTNV-1">
          <mxGeometry x="600" y="305" width="110" height="45" as="geometry" />
        </mxCell>
        <mxCell id="2IBECbfdiOeWQBRibXv1-33" value="Daftar Komentar" style="rounded=1;whiteSpace=wrap;html=1;" vertex="1" parent="WIyWlLk6GJQsqaUBKTNV-1">
          <mxGeometry x="330" y="455" width="100" height="50" as="geometry" />
        </mxCell>
      </root>
    </mxGraphModel>
  </diagram>
</mxfile>
